<?xml version="1.0" encoding="UTF-8" standalone="no"?>
<!-- Created with Inkscape (http://www.inkscape.org/) -->

<svg
   xmlns:dc="http://purl.org/dc/elements/1.1/"
   xmlns:cc="http://creativecommons.org/ns#"
   xmlns:rdf="http://www.w3.org/1999/02/22-rdf-syntax-ns#"
   xmlns:svg="http://www.w3.org/2000/svg"
   xmlns="http://www.w3.org/2000/svg"
   xmlns:xlink="http://www.w3.org/1999/xlink"
   xmlns:sodipodi="http://sodipodi.sourceforge.net/DTD/sodipodi-0.dtd"
   xmlns:inkscape="http://www.inkscape.org/namespaces/inkscape"
   width="450"
   height="315"
   id="svg4307"
   version="1.1"
   inkscape:version="0.48.2 r9819"
   sodipodi:docname="bushing_demo.svg">
  <sodipodi:namedview
     id="base"
     pagecolor="#ffffff"
     bordercolor="#666666"
     borderopacity="1.0"
     inkscape:pageopacity="0.0"
     inkscape:pageshadow="2"
     inkscape:zoom="0.86314592"
     inkscape:cx="269.99483"
     inkscape:cy="67.444196"
     inkscape:document-units="px"
     inkscape:current-layer="layer1"
     showgrid="false"
     units="in"
     inkscape:window-width="1522"
     inkscape:window-height="993"
     inkscape:window-x="89"
     inkscape:window-y="20"
     inkscape:window-maximized="0"
     fit-margin-top="0"
     fit-margin-left="0"
     fit-margin-right="0"
     fit-margin-bottom="0" />
  <defs
     id="defs4309">
    <marker
       style="overflow:visible"
       id="Arrow1Send"
       refX="0"
       refY="0"
       orient="auto"
       inkscape:stockid="Arrow1Send">
      <path
         transform="matrix(-0.2,0,0,-0.2,-1.2,0)"
         style="fill-rule:evenodd;stroke:#000000;stroke-width:1pt;marker-start:none"
         d="M 0,0 5,-5 -12.5,0 5,5 0,0 z"
         id="path3815"
         inkscape:connector-curvature="0" />
    </marker>
    <marker
       style="overflow:visible"
       id="Arrow1SendK"
       refX="0"
       refY="0"
       orient="auto"
       inkscape:stockid="Arrow1SendK">
      <path
         transform="matrix(-0.2,0,0,-0.2,-1.2,0)"
         style="fill:#ff0000;fill-rule:evenodd;stroke:#ff0000;stroke-width:1pt;marker-start:none"
         d="M 0,0 5,-5 -12.5,0 5,5 0,0 z"
         id="path4246"
         inkscape:connector-curvature="0" />
    </marker>
  </defs>
  <metadata
     id="metadata4312">
    <rdf:RDF>
      <cc:Work
         rdf:about="">
        <dc:format>image/svg+xml</dc:format>
        <dc:type
           rdf:resource="http://purl.org/dc/dcmitype/StillImage" />
        <dc:title></dc:title>
      </cc:Work>
    </rdf:RDF>
  </metadata>
  <g
     transform="translate(20.906847,-347.04608)"
     id="layer1"
     inkscape:groupmode="layer"
     inkscape:label="Layer 1">
    <g
       id="g4644"
       transform="matrix(0.50888003,0,0,0.50888003,-27.574437,487.8838)"
       style="stroke:#d00000;stroke-width:0.98254985;stroke-miterlimit:4;stroke-opacity:1;stroke-dasharray:none">
      <rect
         transform="translate(0,737.35975)"
         y="28.837494"
         x="131.49573"
         height="54.451977"
         width="9.2684212"
         id="rect4640"
         style="fill:#ff0000;fill-opacity:1;stroke:#d00000;stroke-width:0.98254985;stroke-miterlimit:4;stroke-opacity:1;stroke-dasharray:none" />
      <path
         inkscape:transform-center-y="-4.9371414"
         transform="translate(16.219736,722.87784)"
         d="m 119.9102,14.881691 8.55138,14.811424 8.55138,14.811425 -17.10276,-10e-7 -17.10276,0 8.55138,-14.811424 z"
         inkscape:randomized="0"
         inkscape:rounded="0"
         inkscape:flatsided="false"
         sodipodi:arg2="-0.52359878"
         sodipodi:arg1="-1.5707963"
         sodipodi:r2="9.8742828"
         sodipodi:r1="19.748566"
         sodipodi:cy="34.630257"
         sodipodi:cx="119.9102"
         sodipodi:sides="3"
         id="path4642"
         style="fill:#ff0000;fill-opacity:1;fill-rule:nonzero;stroke:#d00000;stroke-width:0.98254985;stroke-miterlimit:4;stroke-opacity:1;stroke-dasharray:none"
         sodipodi:type="star" />
    </g>
    <rect
       y="348.21692"
       x="325.74231"
       height="312.67062"
       width="28.897852"
       id="use4676"
       style="fill:#a5a5a5;fill-opacity:1;fill-rule:nonzero;stroke:none" />
    <rect
       y="436.00641"
       x="-20.990732"
       height="48.163078"
       width="337.65414"
       id="use4678"
       style="fill:#444444;fill-opacity:1;fill-rule:nonzero;stroke:none"
       transform="matrix(0.99999998,-1.9239449e-4,1.9239449e-4,0.99999998,0,0)" />
    <path
       inkscape:connector-curvature="0"
       id="use4680"
       d="m 324.38312,488.12069 -0.0113,-58.99982 -31.306,0.006 0.001,6.82312 23.68019,-0.005 0.01,52.17669 z"
       style="fill:#268adb;fill-opacity:1;stroke:none" />
    <rect
       style="fill:#444444;fill-opacity:1;fill-rule:nonzero;stroke:none"
       id="use4682"
       width="104.51251"
       height="48.163078"
       x="362.80142"
       y="436.00641"
       transform="matrix(0.99999998,-1.9239449e-4,1.9239449e-4,0.99999998,0,0)" />
    <use
       x="0"
       y="0"
       xlink:href="#use4680"
       id="use4696"
       transform="matrix(-1,0,0,1,680.01078,-4.4943005e-6)"
       width="450"
       height="315" />
    <use
       x="0"
       y="0"
       xlink:href="#use4676"
       id="use4748"
       transform="translate(0,388.16398)"
       width="450"
       height="315" />
    <g
       id="use4750"
       transform="matrix(0.99916312,0.04090309,-0.04090309,0.99916312,19.282886,377.96895)">
      <g
         id="g4758">
        <rect
           transform="matrix(0.99999998,-1.9239449e-4,1.9239449e-4,0.99999998,0,0)"
           style="fill:#444444;fill-opacity:1;fill-rule:nonzero;stroke:none"
           id="rect4760"
           width="337.65414"
           height="48.163078"
           x="-20.990955"
           y="437.16495" />
        <path
           style="fill:#268adb;fill-opacity:1;stroke:none"
           d="m 324.38312,489.27924 -0.0113,-58.99982 -31.306,0.006 0.001,6.82312 23.68019,-0.005 0.01,52.17669 z"
           id="path4762"
           inkscape:connector-curvature="0" />
      </g>
      <g
         id="g4764">
        <rect
           transform="matrix(0.99999998,-1.9239449e-4,1.9239449e-4,0.99999998,0,0)"
           y="437.16495"
           x="362.80118"
           height="48.163078"
           width="104.51251"
           id="rect4766"
           style="fill:#444444;fill-opacity:1;fill-rule:nonzero;stroke:none" />
        <use
           height="315"
           width="450"
           transform="matrix(-1,0,0,1,680.01078,1.1585545)"
           id="use4768"
           xlink:href="#use4680"
           y="0"
           x="0" />
      </g>
    </g>
    <use
       x="0"
       y="0"
       xlink:href="#g4644"
       id="use4648"
       transform="matrix(-0.28956599,2.2460244,-2.2460244,-0.28956599,2305.4628,1036.5266)"
       width="450"
       height="315"
       inkscape:transform-center-x="4.6342106"
       inkscape:transform-center-y="14.481908" />
    <use
       x="0"
       y="0"
       xlink:href="#use4648"
       id="use4650"
       transform="matrix(-1,0,0,1,681.17975,-57.927634)"
       width="450"
       height="315"
       style="stroke:#ff0000;stroke-opacity:1" />
    <use
       x="0"
       y="0"
       xlink:href="#use4676"
       id="use4752"
       transform="translate(0,755.32125)"
       width="450"
       height="315" />
    <g
       id="g4827"
       transform="matrix(0.99986394,0.01649557,-0.01649557,0.99986394,21.144832,-4.6670345)">
      <g
         transform="translate(0,755.32125)"
         id="use4754">
        <g
           id="g4772">
          <rect
             y="437.16495"
             x="-20.990955"
             height="48.163078"
             width="337.65414"
             id="rect4774"
             style="fill:#444444;fill-opacity:1;fill-rule:nonzero;stroke:none"
             transform="matrix(0.99999998,-1.9239449e-4,1.9239449e-4,0.99999998,0,0)" />
          <path
             inkscape:connector-curvature="0"
             id="path4776"
             d="m 324.38312,489.27924 -0.0113,-58.99982 -31.306,0.006 0.001,6.82312 23.68019,-0.005 0.01,52.17669 z"
             style="fill:#268adb;fill-opacity:1;stroke:none" />
        </g>
        <g
           id="g4778">
          <rect
             style="fill:#444444;fill-opacity:1;fill-rule:nonzero;stroke:none"
             id="rect4780"
             width="104.51251"
             height="48.163078"
             x="362.80118"
             y="437.16495"
             transform="matrix(0.99999998,-1.9239449e-4,1.9239449e-4,0.99999998,0,0)" />
          <use
             x="0"
             y="0"
             xlink:href="#use4680"
             id="use4782"
             transform="matrix(-1,0,0,1,680.01078,1.1585545)"
             width="450"
             height="315" />
        </g>
      </g>
      <g
         id="g4819">
        <use
           x="0"
           y="0"
           xlink:href="#use4696"
           id="use4796"
           transform="matrix(1,0,0,-1,0,1803.5353)"
           width="450"
           height="315" />
        <rect
           transform="matrix(0.99999995,-3.291063e-4,1.124732e-4,0.99999999,0,0)"
           y="1319.5149"
           x="362.73691"
           height="48.163078"
           width="61.097679"
           id="rect4800"
           style="fill:#444444;fill-opacity:1;fill-rule:nonzero;stroke:none" />
      </g>
      <g
         id="g4823">
        <use
           x="0"
           y="0"
           xlink:href="#use4680"
           id="use4794"
           transform="matrix(1,0,0,-1,0,1803.5353)"
           width="450"
           height="315" />
        <use
           x="0"
           y="0"
           xlink:href="#rect4800"
           id="use4802"
           transform="translate(-107.31788,0)"
           width="450"
           height="315" />
      </g>
      <rect
         transform="matrix(0.99999666,-0.00258473,1.4320847e-5,1,0,0)"
         y="1203.3228"
         x="397.27664"
         height="165.26271"
         width="26.693558"
         id="rect4804"
         style="fill:#444444;fill-opacity:1;fill-rule:nonzero;stroke:none" />
      <use
         height="315"
         width="450"
         transform="translate(-141.72514,0)"
         id="use4806"
         xlink:href="#rect4804"
         y="0"
         x="0" />
    </g>
    <use
       x="0"
       y="0"
       xlink:href="#g4644"
       id="use4850"
       transform="translate(0,373.05396)"
       width="450"
       height="315" />
    <use
       height="315"
       width="450"
       transform="matrix(-0.15059138,1.259748,-1.259748,-0.15059138,1448.7822,1451.984)"
       id="use4852"
       xlink:href="#g4644"
       y="0"
       x="0" />
    <use
       x="0"
       y="0"
       xlink:href="#use4852"
       id="use4854"
       transform="matrix(-1,0,0,1,680.97106,-188.42068)"
       width="450"
       height="315" />
    <text
       xml:space="preserve"
       style="font-size:32px;font-style:normal;font-variant:normal;font-weight:normal;font-stretch:normal;text-align:center;line-height:125%;letter-spacing:0px;word-spacing:0px;text-anchor:middle;fill:#000000;fill-opacity:1;stroke:none;font-family:Baskerville;-inkscape-font-specification:Baskerville"
       x="222.86002"
       y="626.70441"
       id="text4935"
       sodipodi:linespacing="125%"><tspan
         sodipodi:role="line"
         id="tspan4937"
         x="222.86002"
         y="626.70441">Aluminum rod</tspan></text>
    <text
       sodipodi:linespacing="125%"
       id="text4939"
       y="509.69067"
       x="67.61396"
       style="font-size:32px;font-style:normal;font-variant:normal;font-weight:normal;font-stretch:normal;text-align:center;line-height:125%;letter-spacing:0px;word-spacing:0px;text-anchor:middle;fill:#000000;fill-opacity:1;stroke:none;font-family:Baskerville;-inkscape-font-specification:Baskerville"
       xml:space="preserve"><tspan
         y="509.69067"
         x="67.61396"
         id="tspan4941"
         sodipodi:role="line">Sample stage</tspan></text>
    <text
       xml:space="preserve"
       style="font-size:32px;font-style:normal;font-variant:normal;font-weight:normal;font-stretch:normal;text-align:start;line-height:125%;letter-spacing:0px;word-spacing:0px;text-anchor:start;fill:#000000;fill-opacity:1;stroke:none;font-family:Baskerville;-inkscape-font-specification:Baskerville"
       x="171.99681"
       y="375.76501"
       id="text4943"
       sodipodi:linespacing="125%"><tspan
         sodipodi:role="line"
         id="tspan4945"
         x="171.99681"
         y="375.76501">Nylon </tspan><tspan
         sodipodi:role="line"
         x="171.99681"
         y="415.76501"
         id="tspan4947">bushing</tspan></text>
    <path
       style="fill:none;stroke:#000000;stroke-width:1px;stroke-linecap:butt;stroke-linejoin:miter;stroke-opacity:1"
       d="m 267.06586,390.0903 c 16.28542,9.40239 37.06973,19.25168 37.06973,37.06973"
       id="path4949"
       inkscape:connector-curvature="0" />
  </g>
</svg>
