<?xml version="1.0" encoding="UTF-8" standalone="no"?>
<!-- Created with Inkscape (http://www.inkscape.org/) -->

<svg
   xmlns:dc="http://purl.org/dc/elements/1.1/"
   xmlns:cc="http://creativecommons.org/ns#"
   xmlns:rdf="http://www.w3.org/1999/02/22-rdf-syntax-ns#"
   xmlns:svg="http://www.w3.org/2000/svg"
   xmlns="http://www.w3.org/2000/svg"
   xmlns:sodipodi="http://sodipodi.sourceforge.net/DTD/sodipodi-0.dtd"
   xmlns:inkscape="http://www.inkscape.org/namespaces/inkscape"
   width="142.20032"
   height="272.94067"
   id="svg2"
   version="1.1"
   inkscape:version="0.47 r22583"
   sodipodi:docname="robot_with_frame_0.svg">
  <defs
     id="defs4">
    <marker
       inkscape:stockid="Arrow1Sstart"
       orient="auto"
       refY="0"
       refX="0"
       id="Arrow1Sstart"
       style="overflow:visible">
      <path
         id="path4280"
         d="M 0,0 5,-5 -12.5,0 5,5 0,0 z"
         style="fill-rule:evenodd;stroke:#000000;stroke-width:1pt;marker-start:none"
         transform="matrix(0.2,0,0,0.2,1.2,0)" />
    </marker>
    <marker
       inkscape:stockid="Arrow1Send"
       orient="auto"
       refY="0"
       refX="0"
       id="Arrow1Send"
       style="overflow:visible">
      <path
         id="path4283"
         d="M 0,0 5,-5 -12.5,0 5,5 0,0 z"
         style="fill-rule:evenodd;stroke:#000000;stroke-width:1pt;marker-start:none"
         transform="matrix(-0.2,0,0,-0.2,-1.2,0)" />
    </marker>
    <marker
       inkscape:stockid="Arrow1Lend"
       orient="auto"
       refY="0"
       refX="0"
       id="Arrow1Lend"
       style="overflow:visible">
      <path
         id="path4271"
         d="M 0,0 5,-5 -12.5,0 5,5 0,0 z"
         style="fill-rule:evenodd;stroke:#000000;stroke-width:1pt;marker-start:none"
         transform="matrix(-0.8,0,0,-0.8,-10,0)" />
    </marker>
    <inkscape:perspective
       sodipodi:type="inkscape:persp3d"
       inkscape:vp_x="0 : 526.18109 : 1"
       inkscape:vp_y="0 : 1000 : 0"
       inkscape:vp_z="744.09448 : 526.18109 : 1"
       inkscape:persp3d-origin="372.04724 : 350.78739 : 1"
       id="perspective10" />
  </defs>
  <sodipodi:namedview
     id="base"
     pagecolor="#ffffff"
     bordercolor="#666666"
     borderopacity="1.0"
     inkscape:pageopacity="0.0"
     inkscape:pageshadow="2"
     inkscape:zoom="2.8944821"
     inkscape:cx="52.926326"
     inkscape:cy="142.00188"
     inkscape:document-units="px"
     inkscape:current-layer="layer1"
     showgrid="false"
     inkscape:window-width="1381"
     inkscape:window-height="1006"
     inkscape:window-x="90"
     inkscape:window-y="668"
     inkscape:window-maximized="0" />
  <metadata
     id="metadata7">
    <rdf:RDF>
      <cc:Work
         rdf:about="">
        <dc:format>image/svg+xml</dc:format>
        <dc:type
           rdf:resource="http://purl.org/dc/dcmitype/StillImage" />
        <dc:title></dc:title>
      </cc:Work>
    </rdf:RDF>
  </metadata>
  <g
     inkscape:label="Layer 1"
     inkscape:groupmode="layer"
     id="layer1"
     transform="translate(-253.61166,-285.97494)">
    <rect
       style="fill:none;stroke:#646464;stroke-width:2.53847671;stroke-linecap:butt;stroke-miterlimit:4;stroke-opacity:1;stroke-dasharray:none;stroke-dashoffset:0"
       id="rect2816"
       width="55.697205"
       height="119.82139"
       x="278.68939"
       y="426.7619"
       ry="10.243591" />
    <path
       sodipodi:type="arc"
       style="fill:none;stroke:#646464;stroke-width:3;stroke-linecap:butt;stroke-miterlimit:4;stroke-opacity:1;stroke-dasharray:none;stroke-dashoffset:0"
       id="path3590"
       sodipodi:cx="329.19196"
       sodipodi:cy="414.61227"
       sodipodi:rx="36.50634"
       sodipodi:ry="36.50634"
       d="m 365.6983,414.61227 c 0,20.1619 -16.34445,36.50634 -36.50634,36.50634 -20.1619,0 -36.50634,-16.34444 -36.50634,-36.50634 0,-20.16189 16.34444,-36.50634 36.50634,-36.50634 20.16189,0 36.50634,16.34445 36.50634,36.50634 z"
       transform="matrix(1.3925656,0,0,1.3925656,-151.88341,-202.44334)" />
    <path
       sodipodi:type="arc"
       style="fill:none;stroke:#646464;stroke-width:3;stroke-linecap:butt;stroke-miterlimit:4;stroke-opacity:1;stroke-dasharray:none;stroke-dashoffset:0"
       id="path3592"
       sodipodi:cx="369.50766"
       sodipodi:cy="281.6022"
       sodipodi:rx="31.109753"
       sodipodi:ry="31.109753"
       d="m 338.39791,281.6022 c 0,-14.7114 10.30497,-27.41174 24.70082,-30.44244"
       sodipodi:start="3.1415927"
       sodipodi:end="4.5048928"
       sodipodi:open="true"
       transform="translate(-31.109752,42.537825)" />
    <path
       sodipodi:type="arc"
       style="fill:none;stroke:#646464;stroke-width:3;stroke-linecap:butt;stroke-miterlimit:4;stroke-opacity:1;stroke-dasharray:none;stroke-dashoffset:0"
       id="path3594"
       sodipodi:cx="377.76129"
       sodipodi:cy="280.3324"
       sodipodi:rx="17.777"
       sodipodi:ry="17.777"
       d="m 395.53829,280.3324 c 0,9.81796 -7.95903,17.777 -17.777,17.777 -9.81796,0 -17.777,-7.95904 -17.777,-17.777 0,-9.81797 7.95904,-17.777 17.777,-17.777 9.81797,0 17.777,7.95903 17.777,17.777 z"
       transform="matrix(0.34129492,0,0,0.34129492,208.51758,196.87806)" />
    <path
       sodipodi:type="arc"
       style="fill:none;stroke:#646464;stroke-width:3;stroke-linecap:butt;stroke-miterlimit:4;stroke-opacity:1;stroke-dasharray:none;stroke-dashoffset:0"
       id="path3596"
       sodipodi:cx="280.02621"
       sodipodi:cy="370.48492"
       sodipodi:rx="10.986207"
       sodipodi:ry="10.986207"
       d="m 291.01242,370.48492 c 0,6.06752 -4.91869,10.98621 -10.98621,10.98621 -6.06751,0 -10.9862,-4.91869 -10.9862,-10.98621 0,-6.06751 4.91869,-10.9862 10.9862,-10.9862 6.06752,0 10.98621,4.91869 10.98621,10.9862 z"
       transform="translate(6.8358623,-0.48827588)" />
    <path
       d="m 291.01242,370.48492 c 0,6.06752 -4.91869,10.98621 -10.98621,10.98621 -6.06751,0 -10.9862,-4.91869 -10.9862,-10.98621 0,-6.06751 4.91869,-10.9862 10.9862,-10.9862 6.06752,0 10.98621,4.91869 10.98621,10.9862 z"
       sodipodi:ry="10.986207"
       sodipodi:rx="10.986207"
       sodipodi:cy="370.48492"
       sodipodi:cx="280.02621"
       id="path3598"
       style="fill:none;stroke:#646464;stroke-width:2.42987514;stroke-linecap:butt;stroke-miterlimit:4;stroke-opacity:1;stroke-dasharray:none;stroke-dashoffset:0"
       sodipodi:type="arc"
       transform="matrix(1.2346313,0,0,1.2346313,-19.515256,-87.415635)" />
    <text
       xml:space="preserve"
       style="font-size:20px;font-style:normal;font-variant:normal;font-weight:normal;font-stretch:normal;fill:#000000;fill-opacity:1;stroke:none;font-family:Cambria Math;-inkscape-font-specification:Cambria Math"
       x="48.759495"
       y="272.94067"
       id="text5104"
       transform="translate(253.61166,285.97494)"><tspan
         sodipodi:role="line"
         id="tspan5106"
         x="48.759495"
         y="272.94067"> </tspan></text>
    <g
       id="g5425">
      <path
         id="path3753"
         d="m 334.92004,377.39917 c 0,0 0,0 0,52.85693 l 46.71078,0"
         style="fill:none;stroke:#000000;stroke-width:2;stroke-linecap:butt;stroke-linejoin:miter;stroke-miterlimit:4;stroke-opacity:1;stroke-dasharray:none;marker-start:url(#Arrow1Sstart);marker-end:url(#Arrow1Send)" />
      <text
         id="text5091"
         y="437.63147"
         x="386.36862"
         style="font-size:20px;font-style:normal;font-variant:normal;font-weight:normal;font-stretch:normal;fill:#000000;fill-opacity:1;stroke:none;font-family:Cambria Math;-inkscape-font-specification:Cambria Math"
         xml:space="preserve"><tspan
           y="437.63147"
           x="386.36862"
           id="tspan5093"
           sodipodi:role="line">x</tspan></text>
      <text
         id="text5095"
         y="385.01495"
         x="341.84415"
         style="font-size:20px;font-style:normal;font-variant:normal;font-weight:normal;font-stretch:normal;fill:#000000;fill-opacity:1;stroke:none;font-family:Cambria Math;-inkscape-font-specification:Cambria Math"
         xml:space="preserve"><tspan
           y="385.01495"
           x="341.84415"
           id="tspan5097"
           sodipodi:role="line">y</tspan></text>
      <text
         id="text5108"
         y="445.41663"
         x="318.76093"
         style="font-size:20px;font-style:normal;font-variant:normal;font-weight:normal;font-stretch:normal;fill:#000000;fill-opacity:1;stroke:none;font-family:Cambria Math;-inkscape-font-specification:Cambria Math"
         xml:space="preserve"><tspan
           y="445.41663"
           x="318.76093"
           id="tspan5110"
           sodipodi:role="line">0</tspan></text>
    </g>
  </g>
</svg>
