<?xml version="1.0" encoding="UTF-8" standalone="no"?>
<!-- Created with Inkscape (http://www.inkscape.org/) -->

<svg
   xmlns:dc="http://purl.org/dc/elements/1.1/"
   xmlns:cc="http://creativecommons.org/ns#"
   xmlns:rdf="http://www.w3.org/1999/02/22-rdf-syntax-ns#"
   xmlns:svg="http://www.w3.org/2000/svg"
   xmlns="http://www.w3.org/2000/svg"
   xmlns:sodipodi="http://sodipodi.sourceforge.net/DTD/sodipodi-0.dtd"
   xmlns:inkscape="http://www.inkscape.org/namespaces/inkscape"
   width="580.41949"
   height="261.87759"
   id="svg2"
   version="1.1"
   inkscape:version="0.47 r22583"
   sodipodi:docname="robot_with_arm_and_frame_1_and_ball.svg">
  <defs
     id="defs4">
    <inkscape:perspective
       sodipodi:type="inkscape:persp3d"
       inkscape:vp_x="0 : 526.18109 : 1"
       inkscape:vp_y="0 : 1000 : 0"
       inkscape:vp_z="744.09448 : 526.18109 : 1"
       inkscape:persp3d-origin="372.04724 : 350.78739 : 1"
       id="perspective10" />
    <inkscape:perspective
       id="perspective5442"
       inkscape:persp3d-origin="0.5 : 0.33333333 : 1"
       inkscape:vp_z="1 : 0.5 : 1"
       inkscape:vp_y="0 : 1000 : 0"
       inkscape:vp_x="0 : 0.5 : 1"
       sodipodi:type="inkscape:persp3d" />
    <marker
       inkscape:stockid="Arrow1Sstart"
       orient="auto"
       refY="0"
       refX="0"
       id="Arrow1Sstart"
       style="overflow:visible">
      <path
         id="path4280"
         d="M 0,0 5,-5 -12.5,0 5,5 0,0 z"
         style="fill-rule:evenodd;stroke:#000000;stroke-width:1pt;marker-start:none"
         transform="matrix(0.2,0,0,0.2,1.2,0)" />
    </marker>
    <marker
       inkscape:stockid="Arrow1Send"
       orient="auto"
       refY="0"
       refX="0"
       id="Arrow1Send"
       style="overflow:visible">
      <path
         id="path4283"
         d="M 0,0 5,-5 -12.5,0 5,5 0,0 z"
         style="fill-rule:evenodd;stroke:#000000;stroke-width:1pt;marker-start:none"
         transform="matrix(-0.2,0,0,-0.2,-1.2,0)" />
    </marker>
    <inkscape:perspective
       id="perspective5758"
       inkscape:persp3d-origin="0.5 : 0.33333333 : 1"
       inkscape:vp_z="1 : 0.5 : 1"
       inkscape:vp_y="0 : 1000 : 0"
       inkscape:vp_x="0 : 0.5 : 1"
       sodipodi:type="inkscape:persp3d" />
    <marker
       inkscape:stockid="Arrow1Sstart"
       orient="auto"
       refY="0"
       refX="0"
       id="Arrow1Sstart-7"
       style="overflow:visible">
      <path
         id="path4280-9"
         d="M 0,0 5,-5 -12.5,0 5,5 0,0 z"
         style="fill-rule:evenodd;stroke:#000000;stroke-width:1pt;marker-start:none"
         transform="matrix(0.2,0,0,0.2,1.2,0)" />
    </marker>
    <marker
       inkscape:stockid="Arrow1Send"
       orient="auto"
       refY="0"
       refX="0"
       id="Arrow1Send-3"
       style="overflow:visible">
      <path
         id="path4283-8"
         d="M 0,0 5,-5 -12.5,0 5,5 0,0 z"
         style="fill-rule:evenodd;stroke:#000000;stroke-width:1pt;marker-start:none"
         transform="matrix(-0.2,0,0,-0.2,-1.2,0)" />
    </marker>
  </defs>
  <sodipodi:namedview
     id="base"
     pagecolor="#ffffff"
     bordercolor="#666666"
     borderopacity="1.0"
     inkscape:pageopacity="0.0"
     inkscape:pageshadow="2"
     inkscape:zoom="1.3068134"
     inkscape:cx="290.20975"
     inkscape:cy="130.9388"
     inkscape:document-units="px"
     inkscape:current-layer="layer1"
     showgrid="false"
     inkscape:window-width="1618"
     inkscape:window-height="1006"
     inkscape:window-x="67"
     inkscape:window-y="0"
     inkscape:window-maximized="0" />
  <metadata
     id="metadata7">
    <rdf:RDF>
      <cc:Work
         rdf:about="">
        <dc:format>image/svg+xml</dc:format>
        <dc:type
           rdf:resource="http://purl.org/dc/dcmitype/StillImage" />
        <dc:title />
      </cc:Work>
    </rdf:RDF>
  </metadata>
  <g
     inkscape:label="Layer 1"
     inkscape:groupmode="layer"
     id="layer1"
     transform="translate(-255.19672,-285.97494)">
    <rect
       ry="10.243591"
       y="426.7619"
       x="609.65033"
       height="119.82139"
       width="55.697205"
       id="rect6617"
       style="fill:none;stroke:#646464;stroke-width:2.53847671;stroke-linecap:butt;stroke-miterlimit:4;stroke-opacity:1;stroke-dasharray:none;stroke-dashoffset:0" />
    <path
       transform="matrix(1.3925656,0,0,1.3925656,179.07756,-202.44334)"
       d="m 365.6983,414.61227 a 36.50634,36.50634 0 1 1 -73.01268,0 36.50634,36.50634 0 1 1 73.01268,0 z"
       sodipodi:ry="36.50634"
       sodipodi:rx="36.50634"
       sodipodi:cy="414.61227"
       sodipodi:cx="329.19196"
       id="path6619"
       style="fill:none;stroke:#646464;stroke-width:3;stroke-linecap:butt;stroke-miterlimit:4;stroke-opacity:1;stroke-dasharray:none;stroke-dashoffset:0"
       sodipodi:type="arc" />
    <path
       transform="translate(299.85122,42.537825)"
       sodipodi:open="true"
       sodipodi:end="4.5048928"
       sodipodi:start="3.1415927"
       d="m 338.39791,281.6022 a 31.109753,31.109753 0 0 1 24.70082,-30.44244"
       sodipodi:ry="31.109753"
       sodipodi:rx="31.109753"
       sodipodi:cy="281.6022"
       sodipodi:cx="369.50766"
       id="path6621"
       style="fill:none;stroke:#646464;stroke-width:3;stroke-linecap:butt;stroke-miterlimit:4;stroke-opacity:1;stroke-dasharray:none;stroke-dashoffset:0"
       sodipodi:type="arc" />
    <path
       transform="matrix(0.34129492,0,0,0.34129492,539.47855,196.87806)"
       d="m 395.53829,280.3324 a 17.777,17.777 0 1 1 -35.554,0 17.777,17.777 0 1 1 35.554,0 z"
       sodipodi:ry="17.777"
       sodipodi:rx="17.777"
       sodipodi:cy="280.3324"
       sodipodi:cx="377.76129"
       id="path6623"
       style="fill:none;stroke:#646464;stroke-width:3;stroke-linecap:butt;stroke-miterlimit:4;stroke-opacity:1;stroke-dasharray:none;stroke-dashoffset:0"
       sodipodi:type="arc" />
    <path
       transform="translate(337.79683,-0.48827588)"
       d="m 291.01242,370.48492 a 10.986207,10.986207 0 1 1 -21.97241,0 10.986207,10.986207 0 1 1 21.97241,0 z"
       sodipodi:ry="10.986207"
       sodipodi:rx="10.986207"
       sodipodi:cy="370.48492"
       sodipodi:cx="280.02621"
       id="path6625"
       style="fill:none;stroke:#646464;stroke-width:3;stroke-linecap:butt;stroke-miterlimit:4;stroke-opacity:1;stroke-dasharray:none;stroke-dashoffset:0"
       sodipodi:type="arc" />
    <path
       transform="matrix(1.2346313,0,0,1.2346313,311.44571,-87.415635)"
       sodipodi:type="arc"
       style="fill:none;stroke:#646464;stroke-width:2.42987514;stroke-linecap:butt;stroke-miterlimit:4;stroke-opacity:1;stroke-dasharray:none;stroke-dashoffset:0"
       id="path6627"
       sodipodi:cx="280.02621"
       sodipodi:cy="370.48492"
       sodipodi:rx="10.986207"
       sodipodi:ry="10.986207"
       d="m 291.01242,370.48492 a 10.986207,10.986207 0 1 1 -21.97241,0 10.986207,10.986207 0 1 1 21.97241,0 z" />
    <rect
       transform="matrix(0.9993682,-0.03554162,0.03554162,0.9993682,0,0)"
       ry="5.7364111"
       y="449.14972"
       x="647.90686"
       height="11.472822"
       width="117.18668"
       id="rect6629"
       style="fill:none;stroke:#646464;stroke-width:3;stroke-linecap:butt;stroke-miterlimit:4;stroke-opacity:1;stroke-dasharray:none;stroke-dashoffset:0" />
    <path
       transform="matrix(0.6862976,0,0,0.6862976,644.5603,379.60651)"
       d="m 206.51079,68.888336 a 15.980002,15.980002 0 1 1 -31.96,0 15.980002,15.980002 0 1 1 31.96,0 z"
       sodipodi:ry="15.980002"
       sodipodi:rx="15.980002"
       sodipodi:cy="68.888336"
       sodipodi:cx="190.53079"
       id="path6641"
       style="fill:#ff0000;fill-opacity:0.39215686;stroke:#ff0300;stroke-width:2;stroke-linecap:butt;stroke-miterlimit:4;stroke-opacity:1;stroke-dasharray:none;stroke-dashoffset:0"
       sodipodi:type="arc" />
    <rect
       style="fill:none;stroke:#646464;stroke-width:3;stroke-linecap:butt;stroke-miterlimit:4;stroke-opacity:1;stroke-dasharray:none;stroke-dashoffset:0"
       id="rect6643"
       width="117.18668"
       height="11.472822"
       x="-454.87753"
       y="653.15967"
       ry="5.7364111"
       transform="matrix(0.14175905,-0.98990119,0.98990119,0.14175905,0,0)" />
    <rect
       style="fill:none;stroke:#646464;stroke-width:2.53847671;stroke-linecap:butt;stroke-miterlimit:4;stroke-opacity:1;stroke-dasharray:none;stroke-dashoffset:0"
       id="rect6649"
       width="55.697205"
       height="119.82139"
       x="283.51257"
       y="426.7619"
       ry="10.243591" />
    <path
       sodipodi:type="arc"
       style="fill:none;stroke:#646464;stroke-width:3;stroke-linecap:butt;stroke-miterlimit:4;stroke-opacity:1;stroke-dasharray:none;stroke-dashoffset:0"
       id="path6651"
       sodipodi:cx="329.19196"
       sodipodi:cy="414.61227"
       sodipodi:rx="36.50634"
       sodipodi:ry="36.50634"
       d="m 365.6983,414.61227 c 0,20.1619 -16.34445,36.50634 -36.50634,36.50634 -20.1619,0 -36.50634,-16.34444 -36.50634,-36.50634 0,-20.16189 16.34444,-36.50634 36.50634,-36.50634 20.16189,0 36.50634,16.34445 36.50634,36.50634 z"
       transform="matrix(1.3925656,0,0,1.3925656,-147.06023,-202.44334)" />
    <path
       sodipodi:type="arc"
       style="fill:none;stroke:#646464;stroke-width:3;stroke-linecap:butt;stroke-miterlimit:4;stroke-opacity:1;stroke-dasharray:none;stroke-dashoffset:0"
       id="path6653"
       sodipodi:cx="369.50766"
       sodipodi:cy="281.6022"
       sodipodi:rx="31.109753"
       sodipodi:ry="31.109753"
       d="m 338.39791,281.6022 c 0,-14.7114 10.30497,-27.41174 24.70082,-30.44244"
       sodipodi:start="3.1415927"
       sodipodi:end="4.5048928"
       sodipodi:open="true"
       transform="translate(-26.286573,42.537825)" />
    <path
       sodipodi:type="arc"
       style="fill:none;stroke:#646464;stroke-width:3;stroke-linecap:butt;stroke-miterlimit:4;stroke-opacity:1;stroke-dasharray:none;stroke-dashoffset:0"
       id="path6655"
       sodipodi:cx="377.76129"
       sodipodi:cy="280.3324"
       sodipodi:rx="17.777"
       sodipodi:ry="17.777"
       d="m 395.53829,280.3324 c 0,9.81796 -7.95903,17.777 -17.777,17.777 -9.81796,0 -17.777,-7.95904 -17.777,-17.777 0,-9.81797 7.95904,-17.777 17.777,-17.777 9.81797,0 17.777,7.95903 17.777,17.777 z"
       transform="matrix(0.34129492,0,0,0.34129492,213.34075,196.87806)" />
    <path
       sodipodi:type="arc"
       style="fill:none;stroke:#646464;stroke-width:3;stroke-linecap:butt;stroke-miterlimit:4;stroke-opacity:1;stroke-dasharray:none;stroke-dashoffset:0"
       id="path6657"
       sodipodi:cx="280.02621"
       sodipodi:cy="370.48492"
       sodipodi:rx="10.986207"
       sodipodi:ry="10.986207"
       d="m 291.01242,370.48492 c 0,6.06752 -4.91869,10.98621 -10.98621,10.98621 -6.06751,0 -10.9862,-4.91869 -10.9862,-10.98621 0,-6.06751 4.91869,-10.9862 10.9862,-10.9862 6.06752,0 10.98621,4.91869 10.98621,10.9862 z"
       transform="translate(11.659037,-0.48827588)" />
    <path
       d="m 291.01242,370.48492 c 0,6.06752 -4.91869,10.98621 -10.98621,10.98621 -6.06751,0 -10.9862,-4.91869 -10.9862,-10.98621 0,-6.06751 4.91869,-10.9862 10.9862,-10.9862 6.06752,0 10.98621,4.91869 10.98621,10.9862 z"
       sodipodi:ry="10.986207"
       sodipodi:rx="10.986207"
       sodipodi:cy="370.48492"
       sodipodi:cx="280.02621"
       id="path6659"
       style="fill:none;stroke:#646464;stroke-width:2.42987514;stroke-linecap:butt;stroke-miterlimit:4;stroke-opacity:1;stroke-dasharray:none;stroke-dashoffset:0"
       sodipodi:type="arc"
       transform="matrix(1.2346313,0,0,1.2346313,-14.692083,-87.415635)" />
    <rect
       style="fill:none;stroke:#646464;stroke-width:3;stroke-linecap:butt;stroke-miterlimit:4;stroke-opacity:1;stroke-dasharray:none;stroke-dashoffset:0"
       id="rect6663"
       width="117.18668"
       height="11.472822"
       x="4.5320377"
       y="543.29675"
       ry="5.7364111"
       transform="matrix(0.79084243,-0.61201981,0.61201981,0.79084243,0,0)" />
    <path
       sodipodi:type="arc"
       style="fill:#ff0000;fill-opacity:0.39215686;stroke:#ff0300;stroke-width:2;stroke-linecap:butt;stroke-miterlimit:4;stroke-opacity:1;stroke-dasharray:none;stroke-dashoffset:0"
       id="path6675"
       sodipodi:cx="190.53079"
       sodipodi:cy="68.888336"
       sodipodi:rx="15.980002"
       sodipodi:ry="15.980002"
       d="m 206.51079,68.888336 c 0,8.825512 -7.15449,15.980003 -15.98,15.980003 -8.82551,0 -15.98,-7.154491 -15.98,-15.980003 0,-8.825511 7.15449,-15.980002 15.98,-15.980002 8.82551,0 15.98,7.154491 15.98,15.980002 z"
       transform="matrix(0.6862976,0,0,0.6862976,318.42251,379.60651)" />
    <rect
       transform="matrix(0.14175905,-0.98990119,0.98990119,0.14175905,0,0)"
       ry="5.7364111"
       y="330.31546"
       x="-501.11053"
       height="11.472822"
       width="117.18668"
       id="rect6677"
       style="fill:none;stroke:#646464;stroke-width:3;stroke-linecap:butt;stroke-miterlimit:4;stroke-opacity:1;stroke-dasharray:none;stroke-dashoffset:0" />
    <text
       xml:space="preserve"
       style="font-size:42px;font-style:normal;font-variant:normal;font-weight:normal;font-stretch:normal;fill:#000000;fill-opacity:1;stroke:none;font-family:Cambria Math;-inkscape-font-specification:Cambria Math"
       x="242.53044"
       y="80.152512"
       id="text8019"
       transform="translate(255.19672,285.97494)"><tspan
         sodipodi:role="line"
         id="tspan8021" /></text>
    <path
       id="path5491"
       d="m 398.62928,319.58725 c 0,0 0,0 30.35996,43.26809 l 38.23692,-26.82973"
       style="fill:none;stroke:#000000;stroke-width:2;stroke-linecap:butt;stroke-linejoin:miter;stroke-miterlimit:4;stroke-opacity:1;stroke-dasharray:none;marker-start:url(#Arrow1Sstart);marker-end:url(#Arrow1Send)" />
    <text
       xml:space="preserve"
       style="font-size:20px;font-style:normal;font-variant:normal;font-weight:normal;font-stretch:normal;fill:#000000;fill-opacity:1;stroke:none;font-family:Cambria Math;-inkscape-font-specification:Cambria Math"
       x="470.47482"
       y="337.67435"
       id="text5015"><tspan
         sodipodi:role="line"
         id="tspan5017"
         x="470.47482"
         y="337.67435">x</tspan></text>
    <text
       xml:space="preserve"
       style="font-size:20px;font-style:normal;font-variant:normal;font-weight:normal;font-stretch:normal;fill:#000000;fill-opacity:1;stroke:none;font-family:Cambria Math;-inkscape-font-specification:Cambria Math"
       x="480.67935"
       y="341.65662"
       id="text5019"><tspan
         sodipodi:role="line"
         id="tspan5021"
         x="480.67935"
         y="341.65662"
         style="font-size:10px">1</tspan></text>
    <text
       id="text5440"
       y="315.54819"
       x="379.92148"
       style="font-size:20px;font-style:normal;font-variant:normal;font-weight:normal;font-stretch:normal;fill:#000000;fill-opacity:1;stroke:none;font-family:Cambria Math;-inkscape-font-specification:Cambria Math"
       xml:space="preserve"><tspan
         y="315.54819"
         x="379.92148"
         id="tspan5442"
         sodipodi:role="line">y</tspan></text>
    <text
       id="text5444"
       y="319.53046"
       x="390.12604"
       style="font-size:20px;font-style:normal;font-variant:normal;font-weight:normal;font-stretch:normal;fill:#000000;fill-opacity:1;stroke:none;font-family:Cambria Math;-inkscape-font-specification:Cambria Math"
       xml:space="preserve"><tspan
         style="font-size:10px"
         y="319.53046"
         x="390.12604"
         id="tspan5446"
         sodipodi:role="line">1</tspan></text>
    <path
       style="fill:none;stroke:#000000;stroke-width:2;stroke-linecap:butt;stroke-linejoin:miter;stroke-miterlimit:4;stroke-opacity:1;stroke-dasharray:none;marker-start:url(#Arrow1Sstart);marker-end:url(#Arrow1Send)"
       d="m 774.69284,374.88987 c 0,0 0,0 1.49246,52.83584 l 46.69214,-1.31891"
       id="path5825" />
    <text
       id="text5827"
       y="439.43738"
       x="817.89502"
       style="font-size:20px;font-style:normal;font-variant:normal;font-weight:normal;font-stretch:normal;fill:#000000;fill-opacity:1;stroke:none;font-family:Cambria Math;-inkscape-font-specification:Cambria Math"
       xml:space="preserve"><tspan
         y="439.43738"
         x="817.89502"
         id="tspan5829"
         sodipodi:role="line">x</tspan></text>
    <text
       id="text5831"
       y="443.41965"
       x="828.09955"
       style="font-size:20px;font-style:normal;font-variant:normal;font-weight:normal;font-stretch:normal;fill:#000000;fill-opacity:1;stroke:none;font-family:Cambria Math;-inkscape-font-specification:Cambria Math"
       xml:space="preserve"><tspan
         style="font-size:10px"
         y="443.41965"
         x="828.09955"
         id="tspan5833"
         sodipodi:role="line">1</tspan></text>
    <text
       xml:space="preserve"
       style="font-size:20px;font-style:normal;font-variant:normal;font-weight:normal;font-stretch:normal;fill:#000000;fill-opacity:1;stroke:none;font-family:Cambria Math;-inkscape-font-specification:Cambria Math"
       x="754.70624"
       y="374.94769"
       id="text5835"><tspan
         sodipodi:role="line"
         id="tspan5837"
         x="754.70624"
         y="374.94769">y</tspan></text>
    <text
       xml:space="preserve"
       style="font-size:20px;font-style:normal;font-variant:normal;font-weight:normal;font-stretch:normal;fill:#000000;fill-opacity:1;stroke:none;font-family:Cambria Math;-inkscape-font-specification:Cambria Math"
       x="764.91077"
       y="378.92996"
       id="text5839"><tspan
         sodipodi:role="line"
         id="tspan5841"
         x="764.91077"
         y="378.92996"
         style="font-size:10px">1</tspan></text>
  </g>
</svg>
