<?xml version="1.0" encoding="UTF-8" standalone="no"?>
<!-- Created with Inkscape (http://www.inkscape.org/) -->

<svg
   xmlns:dc="http://purl.org/dc/elements/1.1/"
   xmlns:cc="http://creativecommons.org/ns#"
   xmlns:rdf="http://www.w3.org/1999/02/22-rdf-syntax-ns#"
   xmlns:svg="http://www.w3.org/2000/svg"
   xmlns="http://www.w3.org/2000/svg"
   xmlns:sodipodi="http://sodipodi.sourceforge.net/DTD/sodipodi-0.dtd"
   xmlns:inkscape="http://www.inkscape.org/namespaces/inkscape"
   width="211.73"
   height="350"
   id="svg2"
   version="1.1"
   inkscape:version="0.47 r22583"
   sodipodi:docname="DLP_holo_point_wide.svg">
  <defs
     id="defs4">
    <marker
       inkscape:stockid="Arrow1Mend"
       orient="auto"
       refY="0"
       refX="0"
       id="Arrow1Mend"
       style="overflow:visible">
      <path
         id="path3671"
         d="M 0,0 5,-5 -12.5,0 5,5 0,0 z"
         style="fill-rule:evenodd;stroke:#000000;stroke-width:1pt;marker-start:none"
         transform="matrix(-0.4,0,0,-0.4,-4,0)" />
    </marker>
    <marker
       inkscape:stockid="Arrow2Send"
       orient="auto"
       refY="0"
       refX="0"
       id="Arrow2Send"
       style="overflow:visible">
      <path
         id="path3695"
         style="font-size:12px;fill-rule:evenodd;stroke-width:0.625;stroke-linejoin:round"
         d="M 8.7185878,4.0337352 -2.2072895,0.01601326 8.7185884,-4.0017078 c -1.7454984,2.3720609 -1.7354408,5.6174519 -6e-7,8.035443 z"
         transform="matrix(-0.3,0,0,-0.3,0.69,0)" />
    </marker>
    <marker
       inkscape:stockid="Arrow1Lend"
       orient="auto"
       refY="0"
       refX="0"
       id="Arrow1Lend"
       style="overflow:visible">
      <path
         id="path3665"
         d="M 0,0 5,-5 -12.5,0 5,5 0,0 z"
         style="fill-rule:evenodd;stroke:#000000;stroke-width:1pt;marker-start:none"
         transform="matrix(-0.8,0,0,-0.8,-10,0)" />
    </marker>
    <inkscape:perspective
       sodipodi:type="inkscape:persp3d"
       inkscape:vp_x="0 : 526.18109 : 1"
       inkscape:vp_y="0 : 1000 : 0"
       inkscape:vp_z="744.09448 : 526.18109 : 1"
       inkscape:persp3d-origin="372.04724 : 350.78739 : 1"
       id="perspective10" />
    <inkscape:perspective
       id="perspective2922"
       inkscape:persp3d-origin="0.5 : 0.33333333 : 1"
       inkscape:vp_z="1 : 0.5 : 1"
       inkscape:vp_y="0 : 1000 : 0"
       inkscape:vp_x="0 : 0.5 : 1"
       sodipodi:type="inkscape:persp3d" />
  </defs>
  <sodipodi:namedview
     id="base"
     pagecolor="#ffffff"
     bordercolor="#666666"
     borderopacity="1.0"
     inkscape:pageopacity="0.0"
     inkscape:pageshadow="2"
     inkscape:zoom="2.4733334"
     inkscape:cx="156.94772"
     inkscape:cy="193.17007"
     inkscape:document-units="px"
     inkscape:current-layer="layer1"
     showgrid="false"
     inkscape:window-width="1543"
     inkscape:window-height="990"
     inkscape:window-x="1859"
     inkscape:window-y="98"
     inkscape:window-maximized="0" />
  <metadata
     id="metadata7">
    <rdf:RDF>
      <cc:Work
         rdf:about="">
        <dc:format>image/svg+xml</dc:format>
        <dc:type
           rdf:resource="http://purl.org/dc/dcmitype/StillImage" />
        <dc:title></dc:title>
      </cc:Work>
    </rdf:RDF>
  </metadata>
  <g
     inkscape:label="Layer 1"
     inkscape:groupmode="layer"
     id="layer1"
     transform="translate(-244.72034,-99.727613)">
    <path
       style="fill:none;stroke:#9b9b9b;stroke-width:1px;stroke-linecap:butt;stroke-linejoin:miter;stroke-opacity:1;marker-end:url(#Arrow1Mend)"
       d="m 76.01078,41.105129 71.96765,194.878701 43.26146,-92.18329"
       id="path3940"
       transform="translate(244.72034,99.727613)" />
    <g
       id="g7209"
       transform="matrix(0.99212656,0.12523932,-0.12523932,0.99212656,83.261431,-313.63634)">
      <path
         transform="matrix(-0.8660254,-0.5,0.5,-0.8660254,404.35221,1101.9878)"
         sodipodi:open="true"
         sodipodi:end="9.1629786"
         sodipodi:start="5.2359878"
         d="m 458.02514,524.15435 c 10.92007,6.30471 14.66156,20.26814 8.35685,31.1882 -6.3047,10.92007 -20.26813,14.66156 -31.1882,8.35686 -5.244,-3.02763 -9.0705,-8.01442 -10.63771,-13.86334"
         sodipodi:ry="22.831348"
         sodipodi:rx="22.831348"
         sodipodi:cy="543.92688"
         sodipodi:cx="446.60947"
         id="path3643"
         style="fill:none;stroke:#000000;stroke-width:3;stroke-linecap:butt;stroke-miterlimit:4;stroke-opacity:1;stroke-dasharray:none;stroke-dashoffset:0"
         sodipodi:type="arc" />
      <path
         transform="matrix(-0.8660254,-0.5,0.5,-0.8660254,310.27491,1118.0826)"
         d="m 387.35583,606.43536 c 0,7.61126 -6.17014,13.78141 -13.7814,13.78141 -7.61126,0 -13.7814,-6.17015 -13.7814,-13.78141 0,-7.61125 6.17014,-13.7814 13.7814,-13.7814 7.61126,0 13.7814,6.17015 13.7814,13.7814 z"
         sodipodi:ry="13.781403"
         sodipodi:rx="13.781403"
         sodipodi:cy="606.43536"
         sodipodi:cx="373.57443"
         id="path3645"
         style="fill:#ffff00;fill-opacity:1;stroke:#ffff00;stroke-width:3;stroke-linecap:butt;stroke-miterlimit:4;stroke-opacity:1;stroke-dasharray:none;stroke-dashoffset:0"
         sodipodi:type="arc" />
    </g>
    <rect
       style="fill:none;stroke:#000000;stroke-width:3.4000001;stroke-linecap:butt;stroke-miterlimit:4;stroke-opacity:1;stroke-dasharray:none;stroke-dashoffset:0"
       id="rect3615"
       width="6.6489367"
       height="160.96931"
       x="-366.39047"
       y="263.95801"
       transform="matrix(0,-1,1,0,0,0)" />
    <g
       id="g3144">
      <path
         id="path3617"
         d="m 297.94277,358.54805 0,-18.77486"
         style="fill:none;stroke:#000000;stroke-width:6.48917198;stroke-linecap:butt;stroke-linejoin:miter;stroke-miterlimit:4;stroke-opacity:1;stroke-dasharray:none" />
      <path
         style="fill:none;stroke:#00fffc;stroke-width:5.20699978;stroke-linecap:butt;stroke-linejoin:miter;stroke-miterlimit:4;stroke-opacity:1;stroke-dasharray:none"
         d="m 274.73825,341.80432 41.22608,-5.1644"
         id="path5601" />
    </g>
    <g
       id="g3134"
       transform="translate(-1.0914001,0)">
      <path
         style="fill:none;stroke:#000000;stroke-width:6.48917198;stroke-linecap:butt;stroke-linejoin:miter;stroke-miterlimit:4;stroke-opacity:1;stroke-dasharray:none"
         d="m 344.08948,358.66718 0,-18.77485"
         id="path5603" />
      <path
         id="path5605"
         d="m 324.98891,336.26542 41.09034,6.15168"
         style="fill:none;stroke:#00fffc;stroke-width:5.20699978;stroke-linecap:butt;stroke-linejoin:miter;stroke-miterlimit:4;stroke-opacity:1;stroke-dasharray:none" />
    </g>
    <g
       id="g5981"
       transform="matrix(-1.0247463,-0.27457995,0.27457995,-1.0247463,522.42367,1052.6886)">
      <path
         sodipodi:end="5.2359878"
         sodipodi:start="4.1887902"
         d="m 317.22692,706.89106 c 9.04612,-5.22277 20.19139,-5.22277 29.23751,10e-6 l -14.61876,25.32042 z"
         sodipodi:ry="29.237505"
         sodipodi:rx="29.237505"
         sodipodi:cy="732.21149"
         sodipodi:cx="331.84567"
         id="path5973"
         style="fill:none;stroke:#000000;stroke-width:1;stroke-linecap:butt;stroke-miterlimit:4;stroke-opacity:1;stroke-dasharray:none;stroke-dashoffset:0"
         sodipodi:type="arc" />
      <path
         id="path5975"
         d="m 317.59239,707.35963 c -4.38563,-5.11656 -7.30938,-3.28922 -7.30938,-3.28922"
         style="fill:none;stroke:#000000;stroke-width:1px;stroke-linecap:butt;stroke-linejoin:miter;stroke-opacity:1" />
      <path
         style="fill:none;stroke:#000000;stroke-width:1px;stroke-linecap:butt;stroke-linejoin:miter;stroke-opacity:1"
         d="m 346.09895,706.99416 c 4.38563,-5.11656 7.30938,-3.28922 7.30938,-3.28922"
         id="path5977" />
      <path
         sodipodi:type="arc"
         style="fill:#000000;fill-opacity:1;stroke:#000000;stroke-width:1;stroke-linecap:butt;stroke-miterlimit:4;stroke-opacity:1;stroke-dasharray:none;stroke-dashoffset:0"
         id="path5979"
         sodipodi:cx="130.34955"
         sodipodi:cy="359.57144"
         sodipodi:rx="2.7184293"
         sodipodi:ry="2.7184293"
         d="m 133.06798,359.57144 c 0,1.50135 -1.21708,2.71843 -2.71843,2.71843 -1.50135,0 -2.71843,-1.21708 -2.71843,-2.71843 0,-1.50135 1.21708,-2.71843 2.71843,-2.71843 1.50135,0 2.71843,1.21708 2.71843,2.71843 z"
         transform="translate(201.71563,347.47853)" />
    </g>
    <g
       transform="matrix(-1.0247463,0.27457994,-0.27457994,-1.0247463,802.62793,871.72169)"
       id="g7561">
      <path
         sodipodi:type="arc"
         style="fill:none;stroke:#000000;stroke-width:1;stroke-linecap:butt;stroke-miterlimit:4;stroke-opacity:1;stroke-dasharray:none;stroke-dashoffset:0"
         id="path7563"
         sodipodi:cx="331.84567"
         sodipodi:cy="732.21149"
         sodipodi:rx="29.237505"
         sodipodi:ry="29.237505"
         d="m 317.22692,706.89106 c 9.04612,-5.22277 20.19139,-5.22277 29.23751,10e-6 l -14.61876,25.32042 z"
         sodipodi:start="4.1887902"
         sodipodi:end="5.2359878" />
      <path
         style="fill:none;stroke:#000000;stroke-width:1px;stroke-linecap:butt;stroke-linejoin:miter;stroke-opacity:1"
         d="m 317.59239,707.35963 c -4.38563,-5.11656 -7.30938,-3.28922 -7.30938,-3.28922"
         id="path7565" />
      <path
         id="path7567"
         d="m 346.09895,706.99416 c 4.38563,-5.11656 7.30938,-3.28922 7.30938,-3.28922"
         style="fill:none;stroke:#000000;stroke-width:1px;stroke-linecap:butt;stroke-linejoin:miter;stroke-opacity:1" />
      <path
         transform="translate(201.71563,347.47853)"
         d="m 133.06798,359.57144 c 0,1.50135 -1.21708,2.71843 -2.71843,2.71843 -1.50135,0 -2.71843,-1.21708 -2.71843,-2.71843 0,-1.50135 1.21708,-2.71843 2.71843,-2.71843 1.50135,0 2.71843,1.21708 2.71843,2.71843 z"
         sodipodi:ry="2.7184293"
         sodipodi:rx="2.7184293"
         sodipodi:cy="359.57144"
         sodipodi:cx="130.34955"
         id="path7569"
         style="fill:#000000;fill-opacity:1;stroke:#000000;stroke-width:1;stroke-linecap:butt;stroke-miterlimit:4;stroke-opacity:1;stroke-dasharray:none;stroke-dashoffset:0"
         sodipodi:type="arc" />
    </g>
    <path
       style="fill:none;stroke:#9b9b9b;stroke-width:1px;stroke-linecap:butt;stroke-linejoin:miter;stroke-opacity:1;marker-end:url(#Arrow1Mend)"
       d="m 320.99702,140.81312 23.00565,195.74978 29.46337,-92.02257"
       id="path7578" />
    <path
       style="fill:none;stroke:#9b9b9b;stroke-width:1px;stroke-linecap:butt;stroke-linejoin:miter;stroke-opacity:1;marker-end:url(#Arrow1Mend)"
       d="M 320.99702,141.21673 298.39499,335.75569 270.54605,244.13672"
       id="path8296" />
    <g
       id="g3138"
       transform="translate(48,0)">
      <path
         id="path3140"
         d="m 344.08948,358.66718 0,-18.77485"
         style="fill:none;stroke:#000000;stroke-width:6.48917198;stroke-linecap:butt;stroke-linejoin:miter;stroke-miterlimit:4;stroke-opacity:1;stroke-dasharray:none" />
      <path
         style="fill:none;stroke:#00fffc;stroke-width:5.20699978;stroke-linecap:butt;stroke-linejoin:miter;stroke-miterlimit:4;stroke-opacity:1;stroke-dasharray:none"
         d="m 324.98891,336.26542 41.09034,6.15168"
         id="path3142" />
    </g>
  </g>
</svg>
